<?xml version="1.0" encoding="UTF-8" standalone="no"?>
<svg
   width="48"
   height="48"
   version="1"
   id="svg5"
   sodipodi:docname="kde_geeko_dolphin.svg"
   inkscape:version="1.4.2 (unknown)"
   xmlns:inkscape="http://www.inkscape.org/namespaces/inkscape"
   xmlns:sodipodi="http://sodipodi.sourceforge.net/DTD/sodipodi-0.dtd"
   xmlns="http://www.w3.org/2000/svg"
   xmlns:svg="http://www.w3.org/2000/svg">
  <defs
     id="defs5" />
  <sodipodi:namedview
     id="namedview5"
     pagecolor="#ffffff"
     bordercolor="#000000"
     borderopacity="0.25"
     inkscape:showpageshadow="2"
     inkscape:pageopacity="0.0"
     inkscape:pagecheckerboard="0"
     inkscape:deskcolor="#d1d1d1"
     showguides="true"
     inkscape:zoom="16"
     inkscape:cx="23.375"
     inkscape:cy="17.1875"
     inkscape:window-width="2560"
     inkscape:window-height="1410"
     inkscape:window-x="0"
     inkscape:window-y="0"
     inkscape:window-maximized="1"
     inkscape:current-layer="svg5" />
  <rect
     style="opacity:0.2"
     width="40"
     height="26"
     x="4"
     y="17"
     rx="2"
     ry="2"
     id="rect1" />
  <path
     style="fill:#12806a"
     d="M 4,34 C 4,35.108 4.892,36 6,36 H 42 C 43.108,36 44,35.108 44,34 V 12 C 44,10.892 43.108,10 42,10 H 24 C 21,10 20,6 17,6 H 6 C 4.892,6 4,6.892 4,8"
     id="path1" />
  <rect
     style="opacity:0.2;stroke-width:1.03638"
     width="40"
     height="27.925926"
     x="4"
     y="13"
     rx="2"
     ry="2.1481481"
     id="rect2" />
  <rect
     style="fill:#16a085;stroke-width:1.03638"
     width="40"
     height="27.925926"
     x="4"
     y="14.074074"
     rx="2"
     ry="2.1481481"
     id="rect4" />
  <path
     style="opacity:0.1;fill:#ffffff"
     d="M 6,6 C 4.892,6 4,6.892 4,8 V 9 C 4,7.892 4.892,7 6,7 H 17 C 20,7 21,11 24,11 H 42 C 43.108,11 44,11.892 44,13 V 12 C 44,10.892 43.108,10 42,10 H 24 C 21,10 20,6 17,6 Z"
     id="path4" />
  <path
     id="Geeko"
     d="m 23.48918,23.269887 c -0.512715,0.97285 -0.615242,2.080016 -0.288125,3.121527 0.32709,1.041545 1.034552,1.903877 2.007002,2.40931 2.006193,1.051324 4.491253,0.28133 5.54673,-1.717156 0.506698,-0.97508 0.611514,-2.086969 0.286428,-3.132692 -0.328744,-1.046188 -1.041012,-1.899855 -2.009037,-2.405093 -2.005682,-1.05108 -4.488005,-0.280429 -5.543058,1.724076 z m 4.33096,1.342583 c -0.436631,0.906127 -1.279648,1.401918 -1.880606,1.112334 -0.606698,-0.292348 -0.741633,-1.259371 -0.304994,-2.165504 0.436617,-0.906102 1.278042,-1.405231 1.884741,-1.112885 0.600929,0.289567 0.737221,1.260469 0.300843,2.166057 z m 8.552676,-6.488133 c -0.008,-0.03642 -0.03252,-0.124437 -0.08667,-0.140605 -1.377916,-0.411711 -8.500298,-1.495345 -10.68734,-0.77172 -0.597906,0.201642 -1.151923,0.326898 -1.839479,0.789686 -5.555573,3.753126 -13.356544,15.249451 -13.720057,15.788995 0,0 -0.04009,0.05239 -0.02023,0.111704 0.01545,0.04606 0.07172,0.08046 0.07172,0.08046 0,0 2.542224,1.283822 2.825546,1.42936 -0.55149,0.565178 -2.9235813,3.106541 -5.6873289,6.594932 l 29.0130949,0.0015 c 0.523383,-0.855109 1.092784,-1.897325 1.579447,-2.852321 2.055847,-4.197995 3.463735,-9.10831 3.587948,-12.493057 0.08545,-2.187318 0.118265,-3.59366 -0.19083,-4.633671 -0.09019,-0.36394 -0.375008,-0.667265 -0.683782,-0.989196 L 40.333799,20.8221 c -0.248817,-0.263993 -0.80885,-0.745787 -1.124841,-0.991114 -0.140576,-0.105173 -0.275369,-0.21402 -0.436452,-0.133406 -0.147264,0.07365 -0.11466,0.421617 -0.11466,0.421617 0.147408,1.583555 0.06776,5.32624 -1.254975,8.224088 -1.644626,3.596709 -8.800358,9.04194 -9.549056,9.602551 -1.432822,-0.07375 -2.865651,-0.148247 -4.298926,-0.213334 5.890235,-3.524081 9.83421,-6.900668 11.703955,-10.03928 2.083782,-3.493038 1.46358,-7.297645 1.230166,-8.931639 C 36.45937,18.548137 36.41679,18.328935 36.372579,18.125 Z m -11.95236,12.289538 c -1.389003,-0.733888 -2.416208,-1.958348 -2.88064,-3.456353 -0.467381,-1.500002 -0.316187,-3.090298 0.410852,-4.483735 1.510515,-2.867853 5.078998,-3.97393 7.945649,-2.469169 1.38773,0.736526 2.414939,1.96098 2.877649,3.454908 0.473138,1.502793 0.323484,3.08994 -0.409267,4.488555 -1.512144,2.863202 -5.073631,3.969516 -7.944065,2.465882 z"
     clip-rule="evenodd"
     fill-rule="evenodd"
     style="fill:#08382e;fill-opacity:1;stroke-width:0.331886"
     sodipodi:nodetypes="cccccccccsssscscccscccccccccccccccccccscccccssc" />
</svg>
